<?xml version="1.0" encoding="utf-8"?>
<!-- Svg Vector Icons : http://www.onlinewebfonts.com/icon -->
<!DOCTYPE svg PUBLIC "-//W3C//DTD SVG 1.1//EN" "http://www.w3.org/Graphics/SVG/1.1/DTD/svg11.dtd">
<svg version="1.1" xmlns="http://www.w3.org/2000/svg" xmlns:xlink="http://www.w3.org/1999/xlink" x="0px" y="0px" viewBox="0 0 1000 1000" enable-background="new 0 0 1000 1000" xml:space="preserve">
<metadata> Svg Vector Icons : http://www.onlinewebfonts.com/icon </metadata>
<g><g transform="translate(0.000000,512.000000) scale(0.100000,-0.100000)"><path d="M4991,4805.6c5.8-118.7,17.2-315.8,23-438.3l13.4-220.1l-202.9-34.5c-229.7-36.4-396.2-82.3-396.2-105.3c0-9.6,28.7-99.5,63.2-201l65.1-181.8l-202.9-70.8c-289-101.4-509.1-191.4-595.3-246.9c-59.3-36.4-90-80.4-153.1-212.5c-109.1-227.8-214.4-335-832.6-826.9c-283.3-227.8-580-476.6-656.5-553.2l-141.7-139.7l13.4-158.9c9.6-120.6,5.7-197.1-19.1-308.2c-38.3-168.4-28.7-225.9,42.1-285.2c162.7-135.9,197.1-174.2,197.1-216.3c0-63.2,65.1-122.5,134-122.5c30.6,0,145.5-36.4,252.7-80.4c170.3-68.9,220.1-80.4,369.4-86.1c164.6-7.6,176.1-5.7,273.7,51.7c67,38.3,130.2,99.5,187.6,178c45.9,65.1,107.2,147.4,135.9,183.8c118.7,153.1,356,179.9,733.1,78.5c505.3-135.9,729.3-162.7,928.3-109.1l95.7,26.8L4933.6,342C4122-469.5,3626.3-1181.6,3406.2-1853.4c-118.7-361.8-155-568.5-155-878.6c0-321.6,28.7-444.1,134-581.9l67-88h-68.9c-183.8,0-250.7-264.1-88.1-352.2c49.8-28.7,45.9-28.7-93.8-30.6c-116.8,0-155-7.7-195.2-38.3c-174.2-137.8-183.8-731.2-13.4-901.5l53.6-55.5h2419.4H7885l51.7,53.6c88.1,91.9,116.8,199.1,116.8,444.1c0,245-28.7,352.2-116.8,444.1c-47.9,49.8-63.2,53.6-195.2,53.6c-139.7,0-143.6,1.9-99.5,30.6c57.4,40.2,97.6,135.9,84.2,204.8c-5.7,28.7-36.4,72.7-67,99.5c-47.9,40.2-76.6,47.9-179.9,47.9c-112.9,0-122.5,3.8-149.3,53.6c-90,176.1-126.3,557-88,926.4c26.8,256.5,103.4,572.3,285.2,1163.8c390.5,1278.6,505.3,1806.9,507.2,2354.3c1.9,333-17.2,476.6-97.6,794.3c-285.2,1112.1-1125.4,2002.1-2082.5,2208.8c-103.3,23-191.4,44-193.3,45.9c0,1.9-26.8,68.9-57.4,147.4c-65.1,170.3-166.5,329.2-306.3,491.9c-95.7,109.1-256.5,235.4-300.5,235.4C4985.3,5020,4981.4,4941.5,4991,4805.6z"/></g></g>
</svg>